<svg xmlns="http://www.w3.org/2000/svg" width="400" height="400" id="bell"><path fill="#FFBE55" d="M235.26 321.7c0 19.479-15.78 35.26-35.26 35.26s-35.26-15.78-35.26-35.26c0-1.47.09-2.91.26-4.33h70c.17 1.42.26 2.86.26 4.33z"></path><path fill="#FFBE55" d="M344.13 288.79c0 1.94-.19 3.84-.57 5.68-2.55 12.681-13.51 22.33-26.82 22.87h-.03c-.38.021-.77.03-1.16.03H84.44c-.39 0-.78-.01-1.16-.03h-.03c-13.3-.54-24.26-10.189-26.81-22.87-.38-1.84-.57-3.739-.57-5.68 0-15.79 12.79-28.58 28.57-28.58h231.11c15.79 0 28.58 12.79 28.58 28.58z" opacity=".8"></path><path fill="#FFBE55" d="M299.012 238.645v-57.291c0-46.332-31.824-85.216-74.802-96.02a27.97 27.97 0 0 0 3.871-14.217c0-15.506-12.574-28.081-28.082-28.081-15.507 0-28.082 12.575-28.082 28.081a27.968 27.968 0 0 0 3.871 14.217c-42.979 10.804-74.794 49.688-74.794 96.02v57.291c0 12.401-10.055 22.457-22.457 22.457H321.46c-12.402 0-22.448-10.056-22.448-22.457zM200 82.342c-6.201 0-11.233-5.023-11.233-11.224 0-6.21 5.032-11.233 11.233-11.233s11.232 5.023 11.232 11.233c0 6.2-5.031 11.224-11.232 11.224zM56.22 294.466c2.158 13.647 13.971 24.083 28.225 22.792h231.11c14.254 1.291 26.066-9.145 28.225-22.792H56.22z"></path></svg>